<svg width="96" height="96" viewBox="0 0 96 96" fill="none" xmlns="http://www.w3.org/2000/svg">
  <defs>
    <linearGradient id="clawgo_grad" x1="14" y1="10" x2="82" y2="86" gradientUnits="userSpaceOnUse">
      <stop offset="0" stop-color="#D8FF74"/>
      <stop offset="1" stop-color="#8ECB37"/>
    </linearGradient>
    <linearGradient id="clawgo_gloss" x1="24" y1="16" x2="74" y2="50" gradientUnits="userSpaceOnUse">
      <stop offset="0" stop-color="white" stop-opacity="0.34"/>
      <stop offset="1" stop-color="white" stop-opacity="0"/>
    </linearGradient>
  </defs>

  <g transform="rotate(-7 48 48)">
    <!-- primary mark -->
    <rect x="16" y="16" width="64" height="64" rx="18" fill="url(#clawgo_grad)"/>
    <path d="M26 26C41 18 61 19 74 31" stroke="url(#clawgo_gloss)" stroke-width="5" stroke-linecap="round"/>

    <!-- performance: forward speed streaks -->
    <rect x="23" y="41" width="16" height="4.4" rx="2.2" fill="#1D2510" fill-opacity="0.48"/>
    <rect x="22" y="48" width="12" height="3.8" rx="1.9" fill="#1D2510" fill-opacity="0.38"/>
    <rect x="23" y="54" width="9" height="3.2" rx="1.6" fill="#1D2510" fill-opacity="0.30"/>

    <!-- GO core glyph -->
    <path d="M54 35C47.6 35 42.4 40.2 42.4 46.6C42.4 53 47.6 58.2 54 58.2C58.9 58.2 63 55.2 64.7 50.8H56.4V45.4H71.5C71.8 46.5 72 47.6 72 48.8C72 57.1 65.3 63.8 57 63.8C48.7 63.8 42 57.1 42 48.8C42 40.5 48.7 33.8 57 33.8C61.4 33.8 65.3 35.6 68 38.6L64.2 42.2C61.9 39.9 59.1 38.8 56.1 38.8C55.4 38.8 54.7 38.9 54 39.1V35Z" fill="#1D2510" fill-opacity="0.88"/>
    <circle cx="69.2" cy="60.1" r="6.6" fill="#1D2510" fill-opacity="0.88"/>
    <circle cx="69.2" cy="60.1" r="2.6" fill="#D8FF74"/>

    <!-- claw capability: marks cutting through O -->
    <path d="M62.4 52.1L58.2 61.3" stroke="#1D2510" stroke-width="2.8" stroke-linecap="round" stroke-opacity="0.44"/>
    <path d="M67.2 51.2L63.7 61.8" stroke="#1D2510" stroke-width="2.8" stroke-linecap="round" stroke-opacity="0.40"/>
    <path d="M72.1 52.0L69.5 62.6" stroke="#1D2510" stroke-width="2.8" stroke-linecap="round" stroke-opacity="0.36"/>
  </g>
</svg>
