<svg width="168" height="168" viewBox="0 0 168 168" fill="none" xmlns="http://www.w3.org/2000/svg">
  <defs>
    <linearGradient id="lime" x1="18" y1="20" x2="148" y2="146" gradientUnits="userSpaceOnUse">
      <stop offset="0" stop-color="#D8FF74"/>
      <stop offset="1" stop-color="#8ECB37"/>
    </linearGradient>
    <linearGradient id="fur" x1="36" y1="48" x2="116" y2="132" gradientUnits="userSpaceOnUse">
      <stop offset="0" stop-color="#FFE2A7"/>
      <stop offset="1" stop-color="#D7A85A"/>
    </linearGradient>
    <linearGradient id="fur2" x1="48" y1="62" x2="118" y2="120" gradientUnits="userSpaceOnUse">
      <stop offset="0" stop-color="#F4D598"/>
      <stop offset="1" stop-color="#C79349"/>
    </linearGradient>
    <linearGradient id="lob" x1="88" y1="72" x2="154" y2="134" gradientUnits="userSpaceOnUse">
      <stop offset="0" stop-color="#FF8D6B"/>
      <stop offset="1" stop-color="#E84A2A"/>
    </linearGradient>
  </defs>

  <!-- speed / go aura -->
  <g transform="rotate(-8 84 84)">
    <path d="M14 72H40" stroke="url(#lime)" stroke-width="8" stroke-linecap="round" opacity="0.95"/>
    <path d="M10 84H33" stroke="url(#lime)" stroke-width="7" stroke-linecap="round" opacity="0.78"/>
    <path d="M13 95H28" stroke="url(#lime)" stroke-width="6" stroke-linecap="round" opacity="0.6"/>

    <!-- hamster body -->
    <ellipse cx="74" cy="92" rx="40" ry="36" fill="url(#fur)"/>
    <ellipse cx="74" cy="93" rx="29" ry="24" fill="url(#fur2)"/>

    <!-- ears -->
    <circle cx="54" cy="58" r="12" fill="url(#fur)"/>
    <circle cx="90" cy="53" r="13" fill="url(#fur)"/>
    <circle cx="54" cy="58" r="6" fill="#F6BE9D"/>
    <circle cx="90" cy="53" r="7" fill="#F6BE9D"/>

    <!-- face -->
    <circle cx="65" cy="84" r="3.6" fill="#1D2510"/>
    <circle cx="84" cy="82" r="3.9" fill="#1D2510"/>
    <ellipse cx="74" cy="94" rx="8" ry="6" fill="#FFEDE0"/>
    <ellipse cx="74" cy="93" rx="2.7" ry="2.2" fill="#8B4B3A"/>

    <!-- go mark on chest -->
    <path d="M60 106C60 99 65.7 93.3 72.7 93.3C78.2 93.3 82.8 96.8 84.5 101.7H75.3V106.3H88.8C89 107.2 89.2 108.1 89.2 109C89.2 116.6 83.1 122.7 75.5 122.7C67.9 122.7 61.8 116.6 61.8 109C61.8 101.4 67.9 95.3 75.5 95.3C79.2 95.3 82.6 96.8 85 99.2L81.8 102.2C80.1 100.4 78 99.6 75.7 99.6C74.5 99.6 73.3 99.8 72.2 100.2V106H60Z" fill="url(#lime)"/>
    <circle cx="91" cy="114" r="5.8" stroke="url(#lime)" stroke-width="4.2" fill="none"/>

    <!-- arm gripping lobster -->
    <path d="M98 96C106 93 111 94 116 98" stroke="#B17A37" stroke-width="8" stroke-linecap="round"/>

    <!-- lobster -->
    <ellipse cx="127" cy="106" rx="14" ry="18" fill="url(#lob)"/>
    <path d="M116 93C118 86 123 82 129 81C126 87 127 93 132 96" fill="none" stroke="url(#lob)" stroke-width="6" stroke-linecap="round"/>
    <path d="M138 95C143 89 150 89 156 93C149 95 146 100 146 106" fill="none" stroke="url(#lob)" stroke-width="6" stroke-linecap="round"/>
    <path d="M123 121L118 129" stroke="url(#lob)" stroke-width="5" stroke-linecap="round"/>
    <path d="M131 123L128 132" stroke="url(#lob)" stroke-width="5" stroke-linecap="round"/>

    <!-- openclaw slashes near lobster -->
    <path d="M113 80L108 93" stroke="#1D2510" stroke-opacity="0.44" stroke-width="3" stroke-linecap="round"/>
    <path d="M120 78L116 93" stroke="#1D2510" stroke-opacity="0.38" stroke-width="3" stroke-linecap="round"/>
    <path d="M127 79L124 94" stroke="#1D2510" stroke-opacity="0.32" stroke-width="3" stroke-linecap="round"/>
  </g>
</svg>
